<svg width="23" height="23" viewBox="0 0 23 23" fill="none" xmlns="http://www.w3.org/2000/svg">
<path fill-rule="evenodd" clip-rule="evenodd" d="M7.87962 5.74999C6.35061 5.74999 5.11111 6.9895 5.11111 8.51851C5.11111 10.0475 6.35063 11.287 7.87964 11.287C9.40865 11.287 10.6481 10.0475 10.6481 8.51851C10.6481 6.9895 9.40864 5.74999 7.87962 5.74999ZM10.9879 12.0242C11.9552 11.1659 12.5648 9.91342 12.5648 8.51851C12.5648 5.93096 10.4672 3.83333 7.87962 3.83333C5.29207 3.83333 3.19444 5.93096 3.19444 8.51851C3.19444 9.91342 3.80404 11.1659 4.77136 12.0242C4.11703 12.3531 3.51309 12.7867 2.98555 13.3142C2.75159 13.5482 2.53607 13.7972 2.33997 14.059C1.90045 14.6458 1.69348 15.2998 1.72993 15.9598C1.76581 16.6096 2.03312 17.1915 2.41526 17.6612C3.16726 18.5855 4.42815 19.1667 5.75002 19.1667L10.0093 19.1667C11.3311 19.1667 12.592 18.5855 13.344 17.6612C13.7262 17.1915 13.9935 16.6096 14.0294 15.9598C14.0658 15.2998 13.8588 14.6458 13.4193 14.059C13.2232 13.7972 13.0077 13.5482 12.7737 13.3142C12.2462 12.7867 11.6423 12.3531 10.9879 12.0242ZM7.87964 13.2037C6.55233 13.2037 5.27939 13.731 4.34084 14.6695C4.1716 14.8387 4.01578 15.0188 3.87402 15.2081C3.67893 15.4685 3.63434 15.685 3.64368 15.8541C3.65358 16.0334 3.7294 16.2394 3.90202 16.4516C4.25957 16.891 4.95478 17.25 5.75002 17.25L10.0093 17.25C10.8045 17.25 11.4997 16.891 11.8573 16.4516C12.0299 16.2394 12.1057 16.0334 12.1156 15.8541C12.125 15.685 12.0804 15.4685 11.8853 15.2081C11.7435 15.0188 11.5877 14.8387 11.4185 14.6695C10.4799 13.731 9.20696 13.2037 7.87964 13.2037ZM17.7292 7.66666C18.2585 7.66666 18.6875 8.09572 18.6875 8.625V10.0625H20.125C20.6543 10.0625 21.0833 10.4916 21.0833 11.0208C21.0833 11.5501 20.6543 11.9792 20.125 11.9792H18.6875V13.4167C18.6875 13.9459 18.2585 14.375 17.7292 14.375C17.1999 14.375 16.7708 13.9459 16.7708 13.4167V11.9792H15.3333C14.8041 11.9792 14.375 11.5501 14.375 11.0208C14.375 10.4916 14.8041 10.0625 15.3333 10.0625H16.7708V8.625C16.7708 8.09572 17.1999 7.66666 17.7292 7.66666Z" fill="#616E7C" stroke="#FFFEFD" stroke-linecap="round" stroke-linejoin="round"/>
</svg>
